<svg id="Capa_1" enable-background="new 0 0 512 512" height="512" viewBox="0 0 512 512" width="512" xmlns="http://www.w3.org/2000/svg"><g><path d="m492 0h-472c-11.046 0-20 8.954-20 20v472c0 11.046 8.954 20 20 20h472c11.046 0 20-8.954 20-20v-472c0-11.046-8.954-20-20-20zm-20 472h-432v-432h432zm-386.143-305.857c-22.95-22.953 23.223-45.414 52-80.285 7.87-7.87 20.546-7.739 28.285 0l52 52c7.81 7.811 7.81 20.475 0 28.285-7.811 7.811-20.476 7.809-28.285 0l-17.857-17.858v263.715c0 11.046-8.954 20-20 20s-20-8.954-20-20v-263.715l-17.857 17.858c-7.811 7.81-20.475 7.81-28.286 0zm208 208c-7.81-7.811-7.81-20.475 0-28.285 7.811-7.811 20.475-7.811 28.285 0l17.858 17.857v-263.715c0-11.046 8.954-20 20-20s20 8.954 20 20v263.715l17.857-17.858c7.811-7.811 20.475-7.811 28.285 0s7.81 20.475 0 28.285l-52 52c-7.953 7.953-20.67 7.615-28.285 0z"/></g></svg>