<?xml version="1.0" encoding="UTF-8" standalone="no"?>
<!-- Generator: Adobe Illustrator 19.0.0, SVG Export Plug-In . SVG Version: 6.00 Build 0)  -->

<svg
   xmlns:dc="http://purl.org/dc/elements/1.1/"
   xmlns:cc="http://creativecommons.org/ns#"
   xmlns:rdf="http://www.w3.org/1999/02/22-rdf-syntax-ns#"
   xmlns:svg="http://www.w3.org/2000/svg"
   xmlns="http://www.w3.org/2000/svg"
   xmlns:sodipodi="http://sodipodi.sourceforge.net/DTD/sodipodi-0.dtd"
   xmlns:inkscape="http://www.inkscape.org/namespaces/inkscape"
   version="1.1"
   id="Layer_1"
   x="0px"
   y="0px"
   viewBox="0 0 40.135566 40.13565"
   xml:space="preserve"
   sodipodi:docname="estoque.svg"
   width="40.135567"
   height="40.135651"
   inkscape:version="0.92.4 (5da689c313, 2019-01-14)"><metadata
   id="metadata53"><rdf:RDF><cc:Work
       rdf:about=""><dc:format>image/svg+xml</dc:format><dc:type
         rdf:resource="http://purl.org/dc/dcmitype/StillImage" /><dc:title></dc:title></cc:Work></rdf:RDF></metadata><defs
   id="defs51" /><sodipodi:namedview
   pagecolor="#ffffff"
   bordercolor="#666666"
   borderopacity="1"
   objecttolerance="10"
   gridtolerance="10"
   guidetolerance="10"
   inkscape:pageopacity="0"
   inkscape:pageshadow="2"
   inkscape:window-width="1920"
   inkscape:window-height="1017"
   id="namedview49"
   showgrid="false"
   fit-margin-top="0"
   fit-margin-left="0"
   fit-margin-right="0"
   fit-margin-bottom="0"
   inkscape:zoom="1.3786235"
   inkscape:cx="53.314261"
   inkscape:cy="-92.058252"
   inkscape:window-x="-8"
   inkscape:window-y="-8"
   inkscape:window-maximized="1"
   inkscape:current-layer="Layer_1" />
<g
   id="g16"
   transform="matrix(0.08289321,0,0,0.08289321,-8.289321e-5,0)"
   style="stroke-width:12.06371307">
	<g
   id="g14"
   style="stroke-width:12.06371307">
		<g
   id="g12"
   style="stroke-width:12.06371307">
			<path
   d="M 429.255,0 V 149.74 H 389.351 V 69.878 H 239.61 V 29.948 H 84.854 V 149.74 H 49.94 V 0 H 0.001 v 484.185 h 49.938 v -89.844 h 379.315 v 89.844 h 54.931 V 0 Z M 15.001,469.185 V 15 H 34.939 V 469.185 Z M 239.61,84.878 h 134.74 v 64.861 H 239.61 Z m -89.844,-39.93 h 24.931 v 44.896 h -24.931 z m -49.912,0 h 34.913 v 59.896 h 54.931 V 44.948 h 34.913 V 149.74 H 99.854 Z M 429.255,379.341 H 49.94 V 364.393 H 429.255 Z M 109.836,349.393 v -64.861 h 134.74 v 64.861 z m 239.583,-44.896 v -59.896 h 34.913 V 349.393 H 259.576 V 244.601 h 34.913 v 59.896 z m -39.929,-15 v -44.896 h 24.931 v 44.896 z m 119.765,59.896 H 399.333 V 229.601 H 244.576 v 39.931 H 94.836 v 79.861 H 49.94 V 194.688 h 379.315 z m 0,-169.705 H 49.94 V 164.74 h 379.315 z m 39.93,289.497 H 444.254 V 15 h 24.931 z"
   id="path2"
   inkscape:connector-curvature="0"
   style="stroke-width:12.06371307" />
			<rect
   x="326.94501"
   y="109.809"
   width="29.948"
   height="15"
   id="rect4"
   style="stroke-width:12.06371307" />
			<rect
   x="267.04901"
   y="109.809"
   width="49.912998"
   height="15"
   id="rect6"
   style="stroke-width:12.06371307" />
			<rect
   x="197.17"
   y="309.46201"
   width="29.948"
   height="15"
   id="rect8"
   style="stroke-width:12.06371307" />
			<rect
   x="137.276"
   y="309.46201"
   width="49.912998"
   height="15"
   id="rect10"
   style="stroke-width:12.06371307" />
		</g>
	</g>
</g>
<g
   id="g18"
   transform="translate(-190.01695,-180.4191)">
</g>
<g
   id="g20"
   transform="translate(-190.01695,-180.4191)">
</g>
<g
   id="g22"
   transform="translate(-190.01695,-180.4191)">
</g>
<g
   id="g24"
   transform="translate(-190.01695,-180.4191)">
</g>
<g
   id="g26"
   transform="translate(-190.01695,-180.4191)">
</g>
<g
   id="g28"
   transform="translate(-190.01695,-180.4191)">
</g>
<g
   id="g30"
   transform="translate(-190.01695,-180.4191)">
</g>
<g
   id="g32"
   transform="translate(-190.01695,-180.4191)">
</g>
<g
   id="g34"
   transform="translate(-190.01695,-180.4191)">
</g>
<g
   id="g36"
   transform="translate(-190.01695,-180.4191)">
</g>
<g
   id="g38"
   transform="translate(-190.01695,-180.4191)">
</g>
<g
   id="g40"
   transform="translate(-190.01695,-180.4191)">
</g>
<g
   id="g42"
   transform="translate(-190.01695,-180.4191)">
</g>
<g
   id="g44"
   transform="translate(-190.01695,-180.4191)">
</g>
<g
   id="g46"
   transform="translate(-190.01695,-180.4191)">
</g>
</svg>