<svg id="Capa_1" enable-background="new 0 0 512 512" height="512" viewBox="0 0 512 512" width="512" xmlns="http://www.w3.org/2000/svg"><g><path d="m412 40h-58v-20c0-11.046-8.954-20-20-20h-156c-11.046 0-20 8.954-20 20v20h-58c-11.046 0-20 8.954-20 20v432c0 11.046 8.954 20 20 20h312c11.046 0 20-8.954 20-20v-432c0-11.046-8.954-20-20-20zm-214 0h116v40h-116zm194 432h-272v-392h38v20c0 11.046 8.954 20 20 20h156c11.046 0 20-8.954 20-20v-20h38zm-38-274c0 11.046-8.954 20-20 20h-156c-11.046 0-20-8.954-20-20s8.954-20 20-20h156c11.046 0 20 8.954 20 20zm0 98c0 11.046-8.954 20-20 20h-156c-11.046 0-20-8.954-20-20s8.954-20 20-20h156c11.046 0 20 8.954 20 20zm-78 98c0 11.046-8.954 20-20 20h-78c-11.046 0-20-8.954-20-20s8.954-20 20-20h78c11.046 0 20 8.954 20 20z"/></g></svg>